<svg width="150" height="151" viewBox="0 0 150 151" fill="none" xmlns="http://www.w3.org/2000/svg">
<g clip-path="url(#clip0_3417_2051)">
<path d="M150 0.5H0V150.5H150V0.5Z" fill="white"/>
<path d="M14.3735 11.4091H10.9091V14.8735H14.3735V11.4091Z" fill="black"/>
<path d="M17.8379 11.4091H14.3735V14.8735H17.8379V11.4091Z" fill="black"/>
<path d="M21.3022 11.4091H17.8379V14.8735H21.3022V11.4091Z" fill="black"/>
<path d="M24.7666 11.4091H21.3022V14.8735H24.7666V11.4091Z" fill="black"/>
<path d="M28.231 11.4091H24.7666V14.8735H28.231V11.4091Z" fill="black"/>
<path d="M31.6954 11.4091H28.231V14.8735H31.6954V11.4091Z" fill="black"/>
<path d="M35.1597 11.4091H31.6954V14.8735H35.1597V11.4091Z" fill="black"/>
<path d="M42.0885 11.4091H38.6241V14.8735H42.0885V11.4091Z" fill="black"/>
<path d="M55.946 11.4091H52.4816V14.8735H55.946V11.4091Z" fill="black"/>
<path d="M66.3391 11.4091H62.8747V14.8735H66.3391V11.4091Z" fill="black"/>
<path d="M94.0541 11.4091H90.5897V14.8735H94.0541V11.4091Z" fill="black"/>
<path d="M100.983 11.4091H97.5185V14.8735H100.983V11.4091Z" fill="black"/>
<path d="M104.447 11.4091H100.983V14.8735H104.447V11.4091Z" fill="black"/>
<path d="M107.912 11.4091H104.447V14.8735H107.912V11.4091Z" fill="black"/>
<path d="M111.376 11.4091H107.912V14.8735H111.376V11.4091Z" fill="black"/>
<path d="M118.305 11.4091H114.84V14.8735H118.305V11.4091Z" fill="black"/>
<path d="M121.769 11.4091H118.305V14.8735H121.769V11.4091Z" fill="black"/>
<path d="M125.233 11.4091H121.769V14.8735H125.233V11.4091Z" fill="black"/>
<path d="M128.698 11.4091H125.233V14.8735H128.698V11.4091Z" fill="black"/>
<path d="M132.162 11.4091H128.698V14.8735H132.162V11.4091Z" fill="black"/>
<path d="M135.627 11.4091H132.162V14.8735H135.627V11.4091Z" fill="black"/>
<path d="M139.091 11.4091H135.627V14.8735H139.091V11.4091Z" fill="black"/>
<path d="M14.3735 14.8735H10.9091V18.3378H14.3735V14.8735Z" fill="black"/>
<path d="M35.1597 14.8735H31.6954V18.3378H35.1597V14.8735Z" fill="black"/>
<path d="M45.5529 14.8735H42.0885V18.3378H45.5529V14.8735Z" fill="black"/>
<path d="M52.4816 14.8735H49.0172V18.3378H52.4816L52.4816 14.8735Z" fill="black"/>
<path d="M62.8747 14.8735H59.4103V18.3378H62.8747L62.8747 14.8735Z" fill="black"/>
<path d="M69.8035 14.8735H66.3391L66.3391 18.3378H69.8035V14.8735Z" fill="black"/>
<path d="M76.7322 14.8735H73.2678V18.3378H76.7322V14.8735Z" fill="black"/>
<path d="M87.1253 14.8735H83.661V18.3378H87.1253V14.8735Z" fill="black"/>
<path d="M90.5897 14.8735H87.1253V18.3378H90.5897V14.8735Z" fill="black"/>
<path d="M94.0541 14.8735H90.5897V18.3378H94.0541V14.8735Z" fill="black"/>
<path d="M118.305 14.8735H114.84V18.3378H118.305V14.8735Z" fill="black"/>
<path d="M139.091 14.8735H135.627V18.3378H139.091V14.8735Z" fill="black"/>
<path d="M14.3735 18.3378H10.9091V21.8022H14.3735V18.3378Z" fill="black"/>
<path d="M21.3022 18.3378H17.8379V21.8022H21.3022V18.3378Z" fill="black"/>
<path d="M24.7666 18.3378H21.3022V21.8022H24.7666V18.3378Z" fill="black"/>
<path d="M28.231 18.3378H24.7666V21.8022H28.231V18.3378Z" fill="black"/>
<path d="M35.1597 18.3378H31.6954V21.8022H35.1597V18.3378Z" fill="black"/>
<path d="M42.0885 18.3378H38.6241V21.8022H42.0885V18.3378Z" fill="black"/>
<path d="M45.5529 18.3378H42.0885V21.8022H45.5529V18.3378Z" fill="black"/>
<path d="M49.0172 18.3378H45.5529V21.8022H49.0172V18.3378Z" fill="black"/>
<path d="M55.946 18.3378H52.4816L52.4816 21.8022H55.946V18.3378Z" fill="black"/>
<path d="M66.3391 18.3378H62.8747L62.8747 21.8022H66.3391L66.3391 18.3378Z" fill="black"/>
<path d="M69.8035 18.3378H66.3391L66.3391 21.8022H69.8035V18.3378Z" fill="black"/>
<path d="M76.7322 18.3378H73.2678V21.8022H76.7322V18.3378Z" fill="black"/>
<path d="M80.1966 18.3378H76.7322V21.8022H80.1966V18.3378Z" fill="black"/>
<path d="M83.661 18.3378H80.1966V21.8022H83.661V18.3378Z" fill="black"/>
<path d="M87.1253 18.3378H83.661V21.8022H87.1253V18.3378Z" fill="black"/>
<path d="M94.0541 18.3378H90.5897V21.8022H94.0541V18.3378Z" fill="black"/>
<path d="M118.305 18.3378H114.84V21.8022H118.305V18.3378Z" fill="black"/>
<path d="M125.233 18.3378H121.769V21.8022H125.233V18.3378Z" fill="black"/>
<path d="M128.698 18.3378H125.233V21.8022H128.698V18.3378Z" fill="black"/>
<path d="M132.162 18.3378H128.698V21.8022H132.162V18.3378Z" fill="black"/>
<path d="M139.091 18.3378H135.627V21.8022H139.091V18.3378Z" fill="black"/>
<path d="M14.3735 21.8022H10.9091V25.2666H14.3735V21.8022Z" fill="black"/>
<path d="M21.3022 21.8022H17.8379V25.2666H21.3022V21.8022Z" fill="black"/>
<path d="M24.7666 21.8022H21.3022V25.2666H24.7666V21.8022Z" fill="black"/>
<path d="M28.231 21.8022H24.7666V25.2666H28.231V21.8022Z" fill="black"/>
<path d="M35.1597 21.8022H31.6954V25.2666H35.1597V21.8022Z" fill="black"/>
<path d="M42.0885 21.8022H38.6241V25.2666H42.0885V21.8022Z" fill="black"/>
<path d="M49.0172 21.8022H45.5529V25.2666H49.0172V21.8022Z" fill="black"/>
<path d="M55.946 21.8022H52.4816V25.2666H55.946V21.8022Z" fill="black"/>
<path d="M62.8747 21.8022H59.4103V25.2666H62.8747L62.8747 21.8022Z" fill="black"/>
<path d="M69.8035 21.8022H66.3391L66.3391 25.2666H69.8035V21.8022Z" fill="black"/>
<path d="M80.1966 21.8022H76.7322V25.2666H80.1966V21.8022Z" fill="black"/>
<path d="M87.1253 21.8022H83.661V25.2666H87.1253V21.8022Z" fill="black"/>
<path d="M104.447 21.8022H100.983V25.2666H104.447V21.8022Z" fill="black"/>
<path d="M118.305 21.8022H114.84V25.2666H118.305V21.8022Z" fill="black"/>
<path d="M125.233 21.8022H121.769V25.2666H125.233V21.8022Z" fill="black"/>
<path d="M128.698 21.8022H125.233V25.2666H128.698V21.8022Z" fill="black"/>
<path d="M132.162 21.8022H128.698V25.2666H132.162V21.8022Z" fill="black"/>
<path d="M139.091 21.8022H135.627V25.2666H139.091V21.8022Z" fill="black"/>
<path d="M14.3735 25.2666H10.9091V28.731H14.3735V25.2666Z" fill="black"/>
<path d="M21.3022 25.2666H17.8379V28.731H21.3022V25.2666Z" fill="black"/>
<path d="M24.7666 25.2666H21.3022V28.731H24.7666V25.2666Z" fill="black"/>
<path d="M28.231 25.2666H24.7666V28.731H28.231V25.2666Z" fill="black"/>
<path d="M35.1597 25.2666H31.6954V28.731H35.1597V25.2666Z" fill="black"/>
<path d="M42.0885 25.2666H38.6241V28.731H42.0885V25.2666Z" fill="black"/>
<path d="M45.5529 25.2666H42.0885V28.731H45.5529V25.2666Z" fill="black"/>
<path d="M52.4816 25.2666H49.0172V28.731H52.4816L52.4816 25.2666Z" fill="black"/>
<path d="M55.946 25.2666H52.4816L52.4816 28.731H55.946V25.2666Z" fill="black"/>
<path d="M62.8747 25.2666H59.4103V28.731H62.8747V25.2666Z" fill="black"/>
<path d="M73.2678 25.2666H69.8035L69.8035 28.731H73.2678V25.2666Z" fill="black"/>
<path d="M80.1966 25.2666H76.7322V28.731H80.1966V25.2666Z" fill="black"/>
<path d="M83.661 25.2666H80.1966V28.731H83.661V25.2666Z" fill="black"/>
<path d="M97.5185 25.2666H94.0541V28.731H97.5185V25.2666Z" fill="black"/>
<path d="M100.983 25.2666H97.5185V28.731H100.983V25.2666Z" fill="black"/>
<path d="M104.447 25.2666H100.983V28.731H104.447V25.2666Z" fill="black"/>
<path d="M107.912 25.2666H104.447V28.731H107.912V25.2666Z" fill="black"/>
<path d="M111.376 25.2666H107.912V28.731H111.376V25.2666Z" fill="black"/>
<path d="M118.305 25.2666H114.84V28.731H118.305V25.2666Z" fill="black"/>
<path d="M125.233 25.2666H121.769V28.731H125.233V25.2666Z" fill="black"/>
<path d="M128.698 25.2666H125.233V28.731H128.698V25.2666Z" fill="black"/>
<path d="M132.162 25.2666H128.698V28.731H132.162V25.2666Z" fill="black"/>
<path d="M139.091 25.2666H135.627V28.731H139.091V25.2666Z" fill="black"/>
<path d="M14.3735 28.731H10.9091V32.1953H14.3735V28.731Z" fill="black"/>
<path d="M35.1597 28.731H31.6954V32.1953H35.1597V28.731Z" fill="black"/>
<path d="M42.0885 28.731H38.6241V32.1953H42.0885V28.731Z" fill="black"/>
<path d="M45.5529 28.731H42.0885V32.1953H45.5529V28.731Z" fill="black"/>
<path d="M49.0172 28.731H45.5529V32.1953H49.0172V28.731Z" fill="black"/>
<path d="M52.4816 28.731H49.0172V32.1953H52.4816V28.731Z" fill="black"/>
<path d="M62.8747 28.731H59.4103V32.1953H62.8747V28.731Z" fill="black"/>
<path d="M66.3391 28.731H62.8747V32.1953H66.3391V28.731Z" fill="black"/>
<path d="M69.8035 28.731H66.3391V32.1953H69.8035L69.8035 28.731Z" fill="black"/>
<path d="M90.5897 28.731H87.1253V32.1953H90.5897V28.731Z" fill="black"/>
<path d="M104.447 28.731H100.983V32.1953H104.447V28.731Z" fill="black"/>
<path d="M118.305 28.731H114.84V32.1953H118.305V28.731Z" fill="black"/>
<path d="M139.091 28.731H135.627V32.1953H139.091V28.731Z" fill="black"/>
<path d="M14.3735 32.1953H10.9091V35.6597H14.3735V32.1953Z" fill="black"/>
<path d="M17.8379 32.1953H14.3735V35.6597H17.8379V32.1953Z" fill="black"/>
<path d="M21.3022 32.1953H17.8379V35.6597H21.3022V32.1953Z" fill="black"/>
<path d="M24.7666 32.1953H21.3022V35.6597H24.7666V32.1953Z" fill="black"/>
<path d="M28.231 32.1953H24.7666V35.6597H28.231V32.1953Z" fill="black"/>
<path d="M31.6954 32.1953H28.231V35.6597H31.6954V32.1953Z" fill="black"/>
<path d="M35.1597 32.1953H31.6954V35.6597H35.1597V32.1953Z" fill="black"/>
<path d="M42.0885 32.1953H38.6241V35.6597H42.0885V32.1953Z" fill="black"/>
<path d="M49.0172 32.1953H45.5529V35.6597H49.0172V32.1953Z" fill="black"/>
<path d="M55.946 32.1953H52.4816L52.4816 35.6597H55.946V32.1953Z" fill="black"/>
<path d="M62.8747 32.1953H59.4103V35.6597H62.8747V32.1953Z" fill="black"/>
<path d="M69.8035 32.1953H66.3391L66.3391 35.6597H69.8035V32.1953Z" fill="black"/>
<path d="M76.7322 32.1953H73.2678V35.6597H76.7322V32.1953Z" fill="black"/>
<path d="M83.661 32.1953H80.1966V35.6597H83.661V32.1953Z" fill="black"/>
<path d="M90.5897 32.1953H87.1253V35.6597H90.5897V32.1953Z" fill="black"/>
<path d="M97.5185 32.1953H94.0541V35.6597H97.5185V32.1953Z" fill="black"/>
<path d="M104.447 32.1953H100.983V35.6597H104.447V32.1953Z" fill="black"/>
<path d="M111.376 32.1953H107.912V35.6597H111.376V32.1953Z" fill="black"/>
<path d="M118.305 32.1953H114.84V35.6597H118.305V32.1953Z" fill="black"/>
<path d="M121.769 32.1953H118.305V35.6597H121.769V32.1953Z" fill="black"/>
<path d="M125.233 32.1953H121.769V35.6597H125.233V32.1953Z" fill="black"/>
<path d="M128.698 32.1953H125.233V35.6597H128.698V32.1953Z" fill="black"/>
<path d="M132.162 32.1953H128.698V35.6597H132.162V32.1953Z" fill="black"/>
<path d="M135.627 32.1953H132.162V35.6597H135.627V32.1953Z" fill="black"/>
<path d="M139.091 32.1953H135.627V35.6597H139.091V32.1953Z" fill="black"/>
<path d="M45.5529 35.6597H42.0885V39.1241H45.5529V35.6597Z" fill="black"/>
<path d="M55.946 35.6597H52.4816V39.1241H55.946V35.6597Z" fill="black"/>
<path d="M59.4103 35.6597H55.946V39.1241H59.4103V35.6597Z" fill="black"/>
<path d="M66.3391 35.6597H62.8747L62.8747 39.1241H66.3391L66.3391 35.6597Z" fill="black"/>
<path d="M69.8035 35.6597H66.3391L66.3391 39.1241H69.8035V35.6597Z" fill="black"/>
<path d="M73.2678 35.6597H69.8035V39.1241H73.2678L73.2678 35.6597Z" fill="black"/>
<path d="M90.5897 35.6597H87.1253V39.1241H90.5897V35.6597Z" fill="black"/>
<path d="M94.0541 35.6597H90.5897V39.1241H94.0541V35.6597Z" fill="black"/>
<path d="M104.447 35.6597H100.983V39.1241H104.447V35.6597Z" fill="black"/>
<path d="M111.376 35.6597H107.912V39.1241H111.376V35.6597Z" fill="black"/>
<path d="M21.3022 39.1241H17.8379V42.5885H21.3022V39.1241Z" fill="black"/>
<path d="M24.7666 39.1241H21.3022V42.5885H24.7666V39.1241Z" fill="black"/>
<path d="M28.231 39.1241H24.7666V42.5885H28.231V39.1241Z" fill="black"/>
<path d="M31.6954 39.1241H28.231V42.5885H31.6954V39.1241Z" fill="black"/>
<path d="M35.1597 39.1241H31.6954V42.5885H35.1597V39.1241Z" fill="black"/>
<path d="M38.6241 39.1241H35.1597V42.5885H38.6241V39.1241Z" fill="black"/>
<path d="M45.5529 39.1241H42.0885V42.5885H45.5529V39.1241Z" fill="black"/>
<path d="M59.4103 39.1241H55.946L55.946 42.5885H59.4103V39.1241Z" fill="black"/>
<path d="M62.8747 39.1241H59.4103V42.5885H62.8747L62.8747 39.1241Z" fill="black"/>
<path d="M76.7322 39.1241H73.2678L73.2678 42.5885H76.7322V39.1241Z" fill="black"/>
<path d="M94.0541 39.1241H90.5897V42.5885H94.0541V39.1241Z" fill="black"/>
<path d="M100.983 39.1241H97.5185V42.5885H100.983V39.1241Z" fill="black"/>
<path d="M104.447 39.1241H100.983V42.5885H104.447V39.1241Z" fill="black"/>
<path d="M107.912 39.1241H104.447V42.5885H107.912V39.1241Z" fill="black"/>
<path d="M114.84 39.1241H111.376V42.5885H114.84V39.1241Z" fill="black"/>
<path d="M121.769 39.1241H118.305V42.5885H121.769V39.1241Z" fill="black"/>
<path d="M125.233 39.1241H121.769V42.5885H125.233V39.1241Z" fill="black"/>
<path d="M128.698 39.1241H125.233V42.5885H128.698V39.1241Z" fill="black"/>
<path d="M132.162 39.1241H128.698V42.5885H132.162V39.1241Z" fill="black"/>
<path d="M139.091 39.1241H135.627V42.5885H139.091V39.1241Z" fill="black"/>
<path d="M21.3022 42.5885H17.8379V46.0528H21.3022V42.5885Z" fill="black"/>
<path d="M24.7666 42.5885H21.3022V46.0528H24.7666V42.5885Z" fill="black"/>
<path d="M28.231 42.5885H24.7666V46.0528H28.231V42.5885Z" fill="black"/>
<path d="M38.6241 42.5885H35.1597V46.0528H38.6241V42.5885Z" fill="black"/>
<path d="M42.0885 42.5885H38.6241V46.0528H42.0885V42.5885Z" fill="black"/>
<path d="M45.5529 42.5885H42.0885V46.0528H45.5529V42.5885Z" fill="black"/>
<path d="M49.0172 42.5885H45.5529V46.0528H49.0172V42.5885Z" fill="black"/>
<path d="M55.946 42.5885H52.4816V46.0528H55.946L55.946 42.5885Z" fill="black"/>
<path d="M59.4103 42.5885H55.946L55.946 46.0528H59.4103V42.5885Z" fill="black"/>
<path d="M62.8747 42.5885H59.4103V46.0528H62.8747V42.5885Z" fill="black"/>
<path d="M73.2678 42.5885H69.8035V46.0528H73.2678L73.2678 42.5885Z" fill="black"/>
<path d="M76.7322 42.5885H73.2678L73.2678 46.0528H76.7322V42.5885Z" fill="black"/>
<path d="M83.661 42.5885H80.1966V46.0528H83.661V42.5885Z" fill="black"/>
<path d="M90.5897 42.5885H87.1253V46.0528H90.5897V42.5885Z" fill="black"/>
<path d="M97.5185 42.5885H94.0541V46.0528H97.5185V42.5885Z" fill="black"/>
<path d="M100.983 42.5885H97.5185V46.0528H100.983V42.5885Z" fill="black"/>
<path d="M104.447 42.5885H100.983V46.0528H104.447V42.5885Z" fill="black"/>
<path d="M107.912 42.5885H104.447V46.0528H107.912V42.5885Z" fill="black"/>
<path d="M111.376 42.5885H107.912V46.0528H111.376V42.5885Z" fill="black"/>
<path d="M121.769 42.5885H118.305V46.0528H121.769V42.5885Z" fill="black"/>
<path d="M128.698 42.5885H125.233V46.0528H128.698V42.5885Z" fill="black"/>
<path d="M21.3022 46.0528H17.8379V49.5172H21.3022V46.0528Z" fill="black"/>
<path d="M24.7666 46.0528H21.3022V49.5172H24.7666V46.0528Z" fill="black"/>
<path d="M28.231 46.0528H24.7666V49.5172H28.231V46.0528Z" fill="black"/>
<path d="M31.6954 46.0528H28.231V49.5172H31.6954V46.0528Z" fill="black"/>
<path d="M35.1597 46.0528H31.6954V49.5172H35.1597V46.0528Z" fill="black"/>
<path d="M38.6241 46.0528H35.1597V49.5172H38.6241V46.0528Z" fill="black"/>
<path d="M42.0885 46.0528H38.6241V49.5172H42.0885V46.0528Z" fill="black"/>
<path d="M45.5529 46.0528H42.0885V49.5172H45.5529V46.0528Z" fill="black"/>
<path d="M49.0172 46.0528H45.5529V49.5172H49.0172V46.0528Z" fill="black"/>
<path d="M52.4816 46.0528H49.0172V49.5172H52.4816L52.4816 46.0528Z" fill="black"/>
<path d="M66.3391 46.0528H62.8747L62.8747 49.5172H66.3391V46.0528Z" fill="black"/>
<path d="M80.1966 46.0528H76.7322V49.5172H80.1966V46.0528Z" fill="black"/>
<path d="M94.0541 46.0528H90.5897V49.5172H94.0541V46.0528Z" fill="black"/>
<path d="M97.5185 46.0528H94.0541V49.5172H97.5185V46.0528Z" fill="black"/>
<path d="M104.447 46.0528H100.983V49.5172H104.447V46.0528Z" fill="black"/>
<path d="M107.912 46.0528H104.447V49.5172H107.912V46.0528Z" fill="black"/>
<path d="M111.376 46.0528H107.912V49.5172H111.376V46.0528Z" fill="black"/>
<path d="M114.84 46.0528H111.376V49.5172H114.84V46.0528Z" fill="black"/>
<path d="M118.305 46.0528H114.84V49.5172H118.305V46.0528Z" fill="black"/>
<path d="M14.3735 49.5172H10.9091V52.9816H14.3735V49.5172Z" fill="black"/>
<path d="M17.8379 49.5172H14.3735V52.9816H17.8379V49.5172Z" fill="black"/>
<path d="M21.3022 49.5172H17.8379V52.9816H21.3022V49.5172Z" fill="black"/>
<path d="M24.7666 49.5172H21.3022V52.9816H24.7666V49.5172Z" fill="black"/>
<path d="M28.231 49.5172H24.7666V52.9816H28.231V49.5172Z" fill="black"/>
<path d="M31.6954 49.5172H28.231V52.9816H31.6954V49.5172Z" fill="black"/>
<path d="M38.6241 49.5172H35.1597V52.9816H38.6241V49.5172Z" fill="black"/>
<path d="M52.4816 49.5172H49.0172V52.9816H52.4816V49.5172Z" fill="black"/>
<path d="M55.946 49.5172H52.4816V52.9816H55.946V49.5172Z" fill="black"/>
<path d="M62.8747 49.5172H59.4103V52.9816H62.8747L62.8747 49.5172Z" fill="black"/>
<path d="M73.2678 49.5172H69.8035V52.9816H73.2678V49.5172Z" fill="black"/>
<path d="M80.1966 49.5172H76.7322V52.9816H80.1966V49.5172Z" fill="black"/>
<path d="M83.661 49.5172H80.1966V52.9816H83.661V49.5172Z" fill="black"/>
<path d="M87.1253 49.5172H83.661V52.9816H87.1253V49.5172Z" fill="black"/>
<path d="M90.5897 49.5172H87.1253V52.9816H90.5897V49.5172Z" fill="black"/>
<path d="M94.0541 49.5172H90.5897V52.9816H94.0541V49.5172Z" fill="black"/>
<path d="M97.5185 49.5172H94.0541V52.9816H97.5185V49.5172Z" fill="black"/>
<path d="M118.305 49.5172H114.84V52.9816H118.305V49.5172Z" fill="black"/>
<path d="M125.233 49.5172H121.769V52.9816H125.233V49.5172Z" fill="black"/>
<path d="M14.3735 52.9816H10.9091V56.4459H14.3735V52.9816Z" fill="black"/>
<path d="M21.3022 52.9816H17.8379V56.4459H21.3022V52.9816Z" fill="black"/>
<path d="M24.7666 52.9816H21.3022V56.4459H24.7666V52.9816Z" fill="black"/>
<path d="M31.6954 52.9816H28.231V56.4459H31.6954V52.9816Z" fill="black"/>
<path d="M35.1597 52.9816H31.6954V56.4459H35.1597V52.9816Z" fill="black"/>
<path d="M42.0885 52.9816L38.6241 52.9816V56.4459H42.0885V52.9816Z" fill="black"/>
<path d="M45.5529 52.9816H42.0885V56.4459H45.5529V52.9816Z" fill="black"/>
<path d="M52.4816 52.9816H49.0172V56.4459H52.4816V52.9816Z" fill="black"/>
<path d="M59.4103 52.9816H55.946L55.946 56.4459H59.4103V52.9816Z" fill="black"/>
<path d="M62.8747 52.9816H59.4103V56.4459H62.8747V52.9816Z" fill="black"/>
<path d="M66.3391 52.9816L62.8747 52.9816V56.4459H66.3391V52.9816Z" fill="black"/>
<path d="M69.8035 52.9816L66.3391 52.9816V56.4459H69.8035L69.8035 52.9816Z" fill="black"/>
<path d="M73.2678 52.9816H69.8035L69.8035 56.4459H73.2678V52.9816Z" fill="black"/>
<path d="M76.7322 52.9816H73.2678V56.4459H76.7322V52.9816Z" fill="black"/>
<path d="M87.1253 52.9816H83.661V56.4459H87.1253V52.9816Z" fill="black"/>
<path d="M94.0541 52.9816H90.5897V56.4459H94.0541V52.9816Z" fill="black"/>
<path d="M97.5185 52.9816H94.0541V56.4459H97.5185V52.9816Z" fill="black"/>
<path d="M104.447 52.9816H100.983V56.4459H104.447V52.9816Z" fill="black"/>
<path d="M111.376 52.9816H107.912V56.4459H111.376V52.9816Z" fill="black"/>
<path d="M118.305 52.9816H114.84V56.4459H118.305V52.9816Z" fill="black"/>
<path d="M125.233 52.9816H121.769V56.4459H125.233V52.9816Z" fill="black"/>
<path d="M132.162 52.9816H128.698V56.4459H132.162V52.9816Z" fill="black"/>
<path d="M139.091 52.9816H135.627V56.4459H139.091V52.9816Z" fill="black"/>
<path d="M17.8379 56.4459H14.3735V59.9103H17.8379V56.4459Z" fill="black"/>
<path d="M45.5529 56.4459H42.0885V59.9103H45.5529V56.4459Z" fill="black"/>
<path d="M49.0172 56.4459H45.5529V59.9103H49.0172V56.4459Z" fill="black"/>
<path d="M52.4816 56.4459H49.0172V59.9103H52.4816V56.4459Z" fill="black"/>
<path d="M55.946 56.4459H52.4816V59.9103H55.946L55.946 56.4459Z" fill="black"/>
<path d="M62.8747 56.4459H59.4103V59.9103H62.8747V56.4459Z" fill="black"/>
<path d="M66.3391 56.4459H62.8747V59.9103H66.3391V56.4459Z" fill="black"/>
<path d="M73.2678 56.4459H69.8035L69.8035 59.9103H73.2678V56.4459Z" fill="black"/>
<path d="M87.1253 56.4459H83.661V59.9103H87.1253V56.4459Z" fill="black"/>
<path d="M90.5897 56.4459H87.1253V59.9103H90.5897V56.4459Z" fill="black"/>
<path d="M94.0541 56.4459H90.5897V59.9103H94.0541V56.4459Z" fill="black"/>
<path d="M104.447 56.4459H100.983V59.9103H104.447V56.4459Z" fill="black"/>
<path d="M118.305 56.4459H114.84V59.9103H118.305V56.4459Z" fill="black"/>
<path d="M121.769 56.4459H118.305V59.9103H121.769V56.4459Z" fill="black"/>
<path d="M125.233 56.4459H121.769V59.9103H125.233V56.4459Z" fill="black"/>
<path d="M128.698 56.4459H125.233V59.9103H128.698V56.4459Z" fill="black"/>
<path d="M132.162 56.4459H128.698V59.9103H132.162V56.4459Z" fill="black"/>
<path d="M139.091 56.4459H135.627V59.9103H139.091V56.4459Z" fill="black"/>
<path d="M14.3735 59.9103H10.9091V63.3747H14.3735V59.9103Z" fill="black"/>
<path d="M21.3022 59.9103H17.8379V63.3747H21.3022V59.9103Z" fill="black"/>
<path d="M24.7666 59.9103H21.3022V63.3747H24.7666V59.9103Z" fill="black"/>
<path d="M35.1597 59.9103H31.6954V63.3747H35.1597V59.9103Z" fill="black"/>
<path d="M38.6241 59.9103H35.1597V63.3747H38.6241V59.9103Z" fill="black"/>
<path d="M49.0172 59.9103H45.5529V63.3747H49.0172V59.9103Z" fill="black"/>
<path d="M52.4816 59.9103H49.0172V63.3747H52.4816V59.9103Z" fill="black"/>
<path d="M62.8747 59.9103H59.4103V63.3747H62.8747V59.9103Z" fill="black"/>
<path d="M73.2678 59.9103H69.8035V63.3747H73.2678V59.9103Z" fill="black"/>
<path d="M76.7322 59.9103H73.2678V63.3747H76.7322V59.9103Z" fill="black"/>
<path d="M80.1966 59.9103H76.7322V63.3747H80.1966V59.9103Z" fill="black"/>
<path d="M104.447 59.9103H100.983V63.3747H104.447V59.9103Z" fill="black"/>
<path d="M107.912 59.9103H104.447V63.3747H107.912V59.9103Z" fill="black"/>
<path d="M128.698 59.9103H125.233V63.3747H128.698V59.9103Z" fill="black"/>
<path d="M17.8379 63.3747H14.3735V66.8391H17.8379V63.3747Z" fill="black"/>
<path d="M31.6954 63.3747L28.231 63.3747V66.8391H31.6954V63.3747Z" fill="black"/>
<path d="M45.5529 63.3747L42.0885 63.3747V66.8391H45.5529V63.3747Z" fill="black"/>
<path d="M49.0172 63.3747H45.5529V66.8391H49.0172V63.3747Z" fill="black"/>
<path d="M52.4816 63.3747H49.0172V66.8391H52.4816V63.3747Z" fill="black"/>
<path d="M55.946 63.3747L52.4816 63.3747V66.8391H55.946V63.3747Z" fill="black"/>
<path d="M62.8747 63.3747H59.4103V66.8391H62.8747V63.3747Z" fill="black"/>
<path d="M66.3391 63.3747L62.8747 63.3747V66.8391H66.3391V63.3747Z" fill="black"/>
<path d="M69.8035 63.3747L66.3391 63.3747V66.8391H69.8035L69.8035 63.3747Z" fill="black"/>
<path d="M73.2678 63.3747H69.8035L69.8035 66.8391H73.2678V63.3747Z" fill="black"/>
<path d="M90.5897 63.3747H87.1253V66.8391H90.5897V63.3747Z" fill="black"/>
<path d="M100.983 63.3747L97.5185 63.3747V66.8391H100.983V63.3747Z" fill="black"/>
<path d="M104.447 63.3747H100.983V66.8391H104.447V63.3747Z" fill="black"/>
<path d="M107.912 63.3747H104.447V66.8391H107.912V63.3747Z" fill="black"/>
<path d="M111.376 63.3747L107.912 63.3747V66.8391H111.376V63.3747Z" fill="black"/>
<path d="M118.305 63.3747H114.84V66.8391H118.305V63.3747Z" fill="black"/>
<path d="M128.698 63.3747H125.233V66.8391H128.698V63.3747Z" fill="black"/>
<path d="M14.3735 66.8391L10.9091 66.8391V70.3034H14.3735V66.8391Z" fill="black"/>
<path d="M21.3022 66.8391L17.8379 66.8391V70.3034H21.3022V66.8391Z" fill="black"/>
<path d="M28.231 66.8391L24.7666 66.8391V70.3034H28.231V66.8391Z" fill="black"/>
<path d="M31.6954 66.8391H28.231V70.3034H31.6954V66.8391Z" fill="black"/>
<path d="M35.1597 66.8391L31.6954 66.8391V70.3034H35.1597V66.8391Z" fill="black"/>
<path d="M42.0885 66.8391L38.6241 66.8391V70.3034H42.0885V66.8391Z" fill="black"/>
<path d="M49.0172 66.8391H45.5529V70.3034H49.0172V66.8391Z" fill="black"/>
<path d="M55.946 66.8391H52.4816L52.4816 70.3034H55.946V66.8391Z" fill="black"/>
<path d="M59.4103 66.8391H55.946V70.3034H59.4103V66.8391Z" fill="black"/>
<path d="M62.8747 66.8391H59.4103V70.3034H62.8747V66.8391Z" fill="black"/>
<path d="M66.3391 66.8391H62.8747V70.3034H66.3391V66.8391Z" fill="black"/>
<path d="M73.2678 66.8391H69.8035L69.8035 70.3034H73.2678V66.8391Z" fill="black"/>
<path d="M80.1966 66.8391H76.7322V70.3034H80.1966V66.8391Z" fill="black"/>
<path d="M87.1253 66.8391L83.661 66.8391V70.3034H87.1253V66.8391Z" fill="black"/>
<path d="M90.5897 66.8391H87.1253V70.3034H90.5897V66.8391Z" fill="black"/>
<path d="M97.5185 66.8391L94.0541 66.8391V70.3034H97.5185V66.8391Z" fill="black"/>
<path d="M104.447 66.8391H100.983V70.3034H104.447V66.8391Z" fill="black"/>
<path d="M114.84 66.8391H111.376V70.3034H114.84V66.8391Z" fill="black"/>
<path d="M118.305 66.8391H114.84V70.3034H118.305V66.8391Z" fill="black"/>
<path d="M121.769 66.8391L118.305 66.8391V70.3034H121.769V66.8391Z" fill="black"/>
<path d="M128.698 66.8391H125.233V70.3034H128.698V66.8391Z" fill="black"/>
<path d="M135.627 66.8391H132.162V70.3034H135.627V66.8391Z" fill="black"/>
<path d="M17.8379 70.3034H14.3735V73.7678H17.8379V70.3034Z" fill="black"/>
<path d="M24.7666 70.3034H21.3022V73.7678H24.7666V70.3034Z" fill="black"/>
<path d="M28.231 70.3034H24.7666V73.7678H28.231V70.3034Z" fill="black"/>
<path d="M31.6954 70.3034H28.231V73.7678H31.6954V70.3034Z" fill="black"/>
<path d="M38.6241 70.3034H35.1597V73.7678H38.6241V70.3034Z" fill="black"/>
<path d="M45.5529 70.3034H42.0885V73.7678H45.5529V70.3034Z" fill="black"/>
<path d="M49.0172 70.3034H45.5529V73.7678H49.0172V70.3034Z" fill="black"/>
<path d="M55.946 70.3034H52.4816V73.7678H55.946V70.3034Z" fill="black"/>
<path d="M83.661 70.3034H80.1966V73.7678H83.661V70.3034Z" fill="black"/>
<path d="M87.1253 70.3034H83.661V73.7678H87.1253V70.3034Z" fill="black"/>
<path d="M90.5897 70.3034H87.1253V73.7678H90.5897V70.3034Z" fill="black"/>
<path d="M94.0541 70.3034H90.5897V73.7678H94.0541V70.3034Z" fill="black"/>
<path d="M111.376 70.3034L107.912 70.3034V73.7678H111.376V70.3034Z" fill="black"/>
<path d="M139.091 70.3034L135.627 70.3034V73.7678H139.091V70.3034Z" fill="black"/>
<path d="M17.8379 73.7678H14.3735V77.2322H17.8379V73.7678Z" fill="black"/>
<path d="M21.3022 73.7678H17.8379V77.2322H21.3022V73.7678Z" fill="black"/>
<path d="M24.7666 73.7678H21.3022V77.2322H24.7666V73.7678Z" fill="black"/>
<path d="M28.231 73.7678H24.7666V77.2322H28.231V73.7678Z" fill="black"/>
<path d="M35.1597 73.7678H31.6954V77.2322H35.1597V73.7678Z" fill="black"/>
<path d="M38.6241 73.7678H35.1597V77.2322H38.6241V73.7678Z" fill="black"/>
<path d="M45.5529 73.7678H42.0885V77.2322H45.5529V73.7678Z" fill="black"/>
<path d="M52.4816 73.7678H49.0172V77.2322H52.4816L52.4816 73.7678Z" fill="black"/>
<path d="M55.946 73.7678H52.4816L52.4816 77.2322H55.946V73.7678Z" fill="black"/>
<path d="M62.8747 73.7678H59.4103V77.2322H62.8747V73.7678Z" fill="black"/>
<path d="M69.8035 73.7678H66.3391V77.2322H69.8035V73.7678Z" fill="black"/>
<path d="M76.7322 73.7678H73.2678V77.2322H76.7322V73.7678Z" fill="black"/>
<path d="M83.661 73.7678H80.1966V77.2322H83.661V73.7678Z" fill="black"/>
<path d="M94.0541 73.7678H90.5897V77.2322H94.0541V73.7678Z" fill="black"/>
<path d="M100.983 73.7678H97.5185V77.2322H100.983V73.7678Z" fill="black"/>
<path d="M104.447 73.7678H100.983V77.2322H104.447V73.7678Z" fill="black"/>
<path d="M111.376 73.7678H107.912V77.2322H111.376V73.7678Z" fill="black"/>
<path d="M118.305 73.7678H114.84V77.2322H118.305V73.7678Z" fill="black"/>
<path d="M125.233 73.7678H121.769V77.2322H125.233V73.7678Z" fill="black"/>
<path d="M132.162 73.7678H128.698V77.2322H132.162V73.7678Z" fill="black"/>
<path d="M135.627 73.7678L132.162 73.7678V77.2322H135.627V73.7678Z" fill="black"/>
<path d="M139.091 73.7678H135.627V77.2322H139.091V73.7678Z" fill="black"/>
<path d="M28.231 77.2322H24.7666V80.6966H28.231V77.2322Z" fill="black"/>
<path d="M38.6241 77.2322H35.1597V80.6966H38.6241V77.2322Z" fill="black"/>
<path d="M49.0172 77.2322H45.5529V80.6966H49.0172V77.2322Z" fill="black"/>
<path d="M52.4816 77.2322H49.0172V80.6966H52.4816V77.2322Z" fill="black"/>
<path d="M55.946 77.2322H52.4816V80.6966H55.946V77.2322Z" fill="black"/>
<path d="M59.4103 77.2322H55.946V80.6966H59.4103V77.2322Z" fill="black"/>
<path d="M87.1253 77.2322H83.661V80.6966H87.1253V77.2322Z" fill="black"/>
<path d="M94.0541 77.2322H90.5897V80.6966H94.0541V77.2322Z" fill="black"/>
<path d="M97.5185 77.2322H94.0541V80.6966H97.5185V77.2322Z" fill="black"/>
<path d="M104.447 77.2322H100.983V80.6966H104.447V77.2322Z" fill="black"/>
<path d="M107.912 77.2322H104.447V80.6966H107.912V77.2322Z" fill="black"/>
<path d="M111.376 77.2322H107.912V80.6966H111.376V77.2322Z" fill="black"/>
<path d="M114.84 77.2322H111.376V80.6966H114.84V77.2322Z" fill="black"/>
<path d="M121.769 77.2322H118.305V80.6966H121.769V77.2322Z" fill="black"/>
<path d="M17.8379 80.6966H14.3735V84.1609H17.8379V80.6966Z" fill="black"/>
<path d="M24.7666 80.6966H21.3022V84.1609H24.7666V80.6966Z" fill="black"/>
<path d="M35.1597 80.6966H31.6954V84.1609H35.1597V80.6966Z" fill="black"/>
<path d="M45.5529 80.6966H42.0885V84.1609H45.5529V80.6966Z" fill="black"/>
<path d="M52.4816 80.6966H49.0172V84.1609H52.4816V80.6966Z" fill="black"/>
<path d="M55.946 80.6966H52.4816V84.1609H55.946V80.6966Z" fill="black"/>
<path d="M62.8747 80.6966H59.4103V84.1609H62.8747V80.6966Z" fill="black"/>
<path d="M69.8035 80.6966H66.3391V84.1609H69.8035V80.6966Z" fill="black"/>
<path d="M76.7322 80.6966H73.2678V84.1609H76.7322V80.6966Z" fill="black"/>
<path d="M83.661 80.6966H80.1966V84.1609H83.661V80.6966Z" fill="black"/>
<path d="M94.0541 80.6966H90.5897V84.1609H94.0541V80.6966Z" fill="black"/>
<path d="M100.983 80.6966H97.5185V84.1609H100.983V80.6966Z" fill="black"/>
<path d="M107.912 80.6966H104.447V84.1609H107.912V80.6966Z" fill="black"/>
<path d="M118.305 80.6966H114.84V84.1609H118.305V80.6966Z" fill="black"/>
<path d="M125.233 80.6966H121.769V84.1609H125.233V80.6966Z" fill="black"/>
<path d="M132.162 80.6966H128.698V84.1609H132.162V80.6966Z" fill="black"/>
<path d="M139.091 80.6966H135.627V84.1609H139.091V80.6966Z" fill="black"/>
<path d="M14.3735 84.1609H10.9091V87.6253H14.3735V84.1609Z" fill="black"/>
<path d="M17.8379 84.1609H14.3735V87.6253H17.8379V84.1609Z" fill="black"/>
<path d="M21.3022 84.1609H17.8379V87.6253H21.3022V84.1609Z" fill="black"/>
<path d="M28.231 84.1609H24.7666V87.6253H28.231V84.1609Z" fill="black"/>
<path d="M31.6954 84.1609H28.231V87.6253H31.6954V84.1609Z" fill="black"/>
<path d="M38.6241 84.1609H35.1597V87.6253H38.6241V84.1609Z" fill="black"/>
<path d="M42.0885 84.1609H38.6241V87.6253H42.0885V84.1609Z" fill="black"/>
<path d="M45.5529 84.1609H42.0885V87.6253H45.5529V84.1609Z" fill="black"/>
<path d="M49.0172 84.1609H45.5529V87.6253H49.0172V84.1609Z" fill="black"/>
<path d="M52.4816 84.1609H49.0172V87.6253H52.4816V84.1609Z" fill="black"/>
<path d="M69.8035 84.1609H66.3391V87.6253H69.8035V84.1609Z" fill="black"/>
<path d="M80.1966 84.1609H76.7322V87.6253H80.1966V84.1609Z" fill="black"/>
<path d="M87.1253 84.1609H83.661V87.6253H87.1253V84.1609Z" fill="black"/>
<path d="M90.5897 84.1609H87.1253V87.6253H90.5897V84.1609Z" fill="black"/>
<path d="M94.0541 84.1609H90.5897V87.6253H94.0541V84.1609Z" fill="black"/>
<path d="M97.5185 84.1609H94.0541V87.6253H97.5185V84.1609Z" fill="black"/>
<path d="M100.983 84.1609H97.5185V87.6253H100.983V84.1609Z" fill="black"/>
<path d="M104.447 84.1609H100.983V87.6253H104.447V84.1609Z" fill="black"/>
<path d="M107.912 84.1609H104.447V87.6253H107.912V84.1609Z" fill="black"/>
<path d="M125.233 84.1609H121.769V87.6253H125.233V84.1609Z" fill="black"/>
<path d="M128.698 84.1609H125.233V87.6253H128.698V84.1609Z" fill="black"/>
<path d="M135.627 84.1609H132.162V87.6253H135.627V84.1609Z" fill="black"/>
<path d="M28.231 87.6253H24.7666V91.0897H28.231V87.6253Z" fill="black"/>
<path d="M35.1597 87.6253H31.6954V91.0897H35.1597V87.6253Z" fill="black"/>
<path d="M38.6241 87.6253H35.1597V91.0897H38.6241V87.6253Z" fill="black"/>
<path d="M45.5529 87.6253H42.0885V91.0897H45.5529V87.6253Z" fill="black"/>
<path d="M62.8747 87.6253H59.4103V91.0897H62.8747V87.6253Z" fill="black"/>
<path d="M69.8035 87.6253H66.3391V91.0897H69.8035V87.6253Z" fill="black"/>
<path d="M76.7322 87.6253H73.2678V91.0897H76.7322V87.6253Z" fill="black"/>
<path d="M87.1253 87.6253H83.661V91.0897H87.1253V87.6253Z" fill="black"/>
<path d="M94.0541 87.6253H90.5897V91.0897H94.0541V87.6253Z" fill="black"/>
<path d="M100.983 87.6253H97.5185V91.0897H100.983V87.6253Z" fill="black"/>
<path d="M107.912 87.6253H104.447V91.0897H107.912V87.6253Z" fill="black"/>
<path d="M114.84 87.6253H111.376V91.0897H114.84V87.6253Z" fill="black"/>
<path d="M118.305 87.6253H114.84V91.0897H118.305V87.6253Z" fill="black"/>
<path d="M125.233 87.6253H121.769V91.0897H125.233V87.6253Z" fill="black"/>
<path d="M17.8379 91.0897H14.3735V94.554H17.8379V91.0897Z" fill="black"/>
<path d="M21.3022 91.0897H17.8379V94.554H21.3022V91.0897Z" fill="black"/>
<path d="M24.7666 91.0897H21.3022V94.554H24.7666V91.0897Z" fill="black"/>
<path d="M28.231 91.0897H24.7666V94.554H28.231V91.0897Z" fill="black"/>
<path d="M59.4103 91.0897H55.946V94.554H59.4103V91.0897Z" fill="black"/>
<path d="M69.8035 91.0897H66.3391V94.554H69.8035V91.0897Z" fill="black"/>
<path d="M73.2678 91.0897H69.8035V94.554H73.2678L73.2678 91.0897Z" fill="black"/>
<path d="M87.1253 91.0897H83.661V94.554H87.1253V91.0897Z" fill="black"/>
<path d="M97.5185 91.0897H94.0541V94.554H97.5185V91.0897Z" fill="black"/>
<path d="M100.983 91.0897H97.5185V94.554H100.983V91.0897Z" fill="black"/>
<path d="M107.912 91.0897H104.447V94.554H107.912V91.0897Z" fill="black"/>
<path d="M114.84 91.0897H111.376V94.554H114.84V91.0897Z" fill="black"/>
<path d="M121.769 91.0897H118.305V94.554H121.769V91.0897Z" fill="black"/>
<path d="M125.233 91.0897H121.769V94.554H125.233V91.0897Z" fill="black"/>
<path d="M128.698 91.0897H125.233V94.554H128.698V91.0897Z" fill="black"/>
<path d="M17.8379 94.554H14.3735V98.0184H17.8379V94.554Z" fill="black"/>
<path d="M28.231 94.554H24.7666V98.0184H28.231V94.554Z" fill="black"/>
<path d="M35.1597 94.554H31.6954V98.0184H35.1597V94.554Z" fill="black"/>
<path d="M38.6241 94.554H35.1597V98.0184H38.6241V94.554Z" fill="black"/>
<path d="M42.0885 94.554H38.6241V98.0184H42.0885V94.554Z" fill="black"/>
<path d="M45.5529 94.554H42.0885V98.0184H45.5529V94.554Z" fill="black"/>
<path d="M52.4816 94.554H49.0172V98.0184H52.4816V94.554Z" fill="black"/>
<path d="M59.4103 94.554H55.946V98.0184H59.4103V94.554Z" fill="black"/>
<path d="M69.8035 94.554H66.3391V98.0184H69.8035V94.554Z" fill="black"/>
<path d="M76.7322 94.554H73.2678L73.2678 98.0184H76.7322V94.554Z" fill="black"/>
<path d="M83.661 94.554H80.1966V98.0184H83.661V94.554Z" fill="black"/>
<path d="M87.1253 94.554H83.661V98.0184H87.1253V94.554Z" fill="black"/>
<path d="M90.5897 94.554H87.1253V98.0184H90.5897V94.554Z" fill="black"/>
<path d="M94.0541 94.554H90.5897V98.0184H94.0541V94.554Z" fill="black"/>
<path d="M97.5185 94.554H94.0541V98.0184H97.5185V94.554Z" fill="black"/>
<path d="M107.912 94.554H104.447V98.0184H107.912V94.554Z" fill="black"/>
<path d="M135.627 94.554H132.162V98.0184H135.627V94.554Z" fill="black"/>
<path d="M139.091 94.554H135.627V98.0184H139.091V94.554Z" fill="black"/>
<path d="M14.3735 98.0184H10.9091V101.483H14.3735V98.0184Z" fill="black"/>
<path d="M24.7666 98.0184H21.3022V101.483H24.7666V98.0184Z" fill="black"/>
<path d="M42.0885 98.0184H38.6241V101.483H42.0885V98.0184Z" fill="black"/>
<path d="M49.0172 98.0184H45.5529V101.483H49.0172V98.0184Z" fill="black"/>
<path d="M55.946 98.0184H52.4816L52.4816 101.483H55.946L55.946 98.0184Z" fill="black"/>
<path d="M62.8747 98.0184H59.4103V101.483H62.8747V98.0184Z" fill="black"/>
<path d="M69.8035 98.0184H66.3391V101.483H69.8035V98.0184Z" fill="black"/>
<path d="M73.2678 98.0184H69.8035V101.483H73.2678L73.2678 98.0184Z" fill="black"/>
<path d="M83.661 98.0184H80.1966V101.483H83.661V98.0184Z" fill="black"/>
<path d="M97.5185 98.0184H94.0541V101.483H97.5185V98.0184Z" fill="black"/>
<path d="M111.376 98.0184H107.912V101.483H111.376V98.0184Z" fill="black"/>
<path d="M114.84 98.0184H111.376V101.483H114.84V98.0184Z" fill="black"/>
<path d="M118.305 98.0184H114.84V101.483H118.305V98.0184Z" fill="black"/>
<path d="M125.233 98.0184H121.769V101.483H125.233V98.0184Z" fill="black"/>
<path d="M132.162 98.0184H128.698V101.483H132.162V98.0184Z" fill="black"/>
<path d="M139.091 98.0184H135.627V101.483H139.091V98.0184Z" fill="black"/>
<path d="M21.3022 101.483H17.8379V104.947H21.3022V101.483Z" fill="black"/>
<path d="M24.7666 101.483H21.3022V104.947H24.7666V101.483Z" fill="black"/>
<path d="M35.1597 101.483H31.6954V104.947H35.1597V101.483Z" fill="black"/>
<path d="M38.6241 101.483H35.1597V104.947H38.6241V101.483Z" fill="black"/>
<path d="M45.5529 101.483H42.0885V104.947H45.5529V101.483Z" fill="black"/>
<path d="M52.4816 101.483H49.0172V104.947H52.4816L52.4816 101.483Z" fill="black"/>
<path d="M55.946 101.483H52.4816L52.4816 104.947H55.946V101.483Z" fill="black"/>
<path d="M66.3391 101.483H62.8747L62.8747 104.947H66.3391L66.3391 101.483Z" fill="black"/>
<path d="M73.2678 101.483H69.8035L69.8035 104.947H73.2678V101.483Z" fill="black"/>
<path d="M83.661 101.483H80.1966V104.947H83.661V101.483Z" fill="black"/>
<path d="M87.1253 101.483H83.661V104.947H87.1253V101.483Z" fill="black"/>
<path d="M90.5897 101.483H87.1253V104.947H90.5897V101.483Z" fill="black"/>
<path d="M97.5185 101.483H94.0541V104.947H97.5185V101.483Z" fill="black"/>
<path d="M104.447 101.483H100.983V104.947H104.447V101.483Z" fill="black"/>
<path d="M111.376 101.483H107.912V104.947H111.376V101.483Z" fill="black"/>
<path d="M125.233 101.483H121.769V104.947H125.233V101.483Z" fill="black"/>
<path d="M139.091 101.483H135.627V104.947H139.091V101.483Z" fill="black"/>
<path d="M17.8379 104.947H14.3735V108.412H17.8379V104.947Z" fill="black"/>
<path d="M31.6954 104.947H28.231V108.412H31.6954V104.947Z" fill="black"/>
<path d="M49.0172 104.947H45.5529V108.412H49.0172V104.947Z" fill="black"/>
<path d="M62.8747 104.947H59.4103V108.412H62.8747L62.8747 104.947Z" fill="black"/>
<path d="M76.7322 104.947H73.2678L73.2678 108.412H76.7322V104.947Z" fill="black"/>
<path d="M90.5897 104.947H87.1253V108.412H90.5897V104.947Z" fill="black"/>
<path d="M104.447 104.947H100.983V108.412H104.447V104.947Z" fill="black"/>
<path d="M114.84 104.947H111.376V108.412H114.84V104.947Z" fill="black"/>
<path d="M125.233 104.947H121.769V108.412H125.233V104.947Z" fill="black"/>
<path d="M132.162 104.947H128.698V108.412H132.162V104.947Z" fill="black"/>
<path d="M14.3735 108.412H10.9091V111.876H14.3735V108.412Z" fill="black"/>
<path d="M21.3022 108.412H17.8379V111.876H21.3022V108.412Z" fill="black"/>
<path d="M28.231 108.412H24.7666V111.876H28.231V108.412Z" fill="black"/>
<path d="M35.1597 108.412H31.6954V111.876H35.1597V108.412Z" fill="black"/>
<path d="M38.6241 108.412H35.1597V111.876H38.6241V108.412Z" fill="black"/>
<path d="M45.5529 108.412H42.0885V111.876H45.5529V108.412Z" fill="black"/>
<path d="M59.4103 108.412H55.946V111.876H59.4103V108.412Z" fill="black"/>
<path d="M69.8035 108.412H66.3391V111.876H69.8035V108.412Z" fill="black"/>
<path d="M73.2678 108.412H69.8035V111.876H73.2678L73.2678 108.412Z" fill="black"/>
<path d="M80.1966 108.412H76.7322V111.876H80.1966V108.412Z" fill="black"/>
<path d="M83.661 108.412H80.1966V111.876H83.661V108.412Z" fill="black"/>
<path d="M94.0541 108.412H90.5897V111.876H94.0541V108.412Z" fill="black"/>
<path d="M100.983 108.412H97.5185V111.876H100.983V108.412Z" fill="black"/>
<path d="M111.376 108.412H107.912V111.876H111.376V108.412Z" fill="black"/>
<path d="M114.84 108.412H111.376V111.876H114.84V108.412Z" fill="black"/>
<path d="M118.305 108.412H114.84V111.876H118.305V108.412Z" fill="black"/>
<path d="M121.769 108.412H118.305V111.876H121.769V108.412Z" fill="black"/>
<path d="M125.233 108.412H121.769V111.876H125.233V108.412Z" fill="black"/>
<path d="M132.162 108.412H128.698V111.876H132.162V108.412Z" fill="black"/>
<path d="M135.627 108.412H132.162V111.876H135.627V108.412Z" fill="black"/>
<path d="M49.0172 111.876H45.5529V115.34H49.0172V111.876Z" fill="black"/>
<path d="M55.946 111.876H52.4816V115.34H55.946L55.946 111.876Z" fill="black"/>
<path d="M62.8747 111.876H59.4103V115.34H62.8747V111.876Z" fill="black"/>
<path d="M66.3391 111.876H62.8747V115.34H66.3391L66.3391 111.876Z" fill="black"/>
<path d="M73.2678 111.876H69.8035L69.8035 115.34H73.2678V111.876Z" fill="black"/>
<path d="M76.7322 111.876H73.2678V115.34H76.7322V111.876Z" fill="black"/>
<path d="M80.1966 111.876H76.7322V115.34H80.1966V111.876Z" fill="black"/>
<path d="M83.661 111.876H80.1966V115.34H83.661V111.876Z" fill="black"/>
<path d="M94.0541 111.876H90.5897V115.34H94.0541V111.876Z" fill="black"/>
<path d="M97.5185 111.876H94.0541V115.34H97.5185V111.876Z" fill="black"/>
<path d="M104.447 111.876H100.983V115.34H104.447V111.876Z" fill="black"/>
<path d="M107.912 111.876H104.447V115.34H107.912V111.876Z" fill="black"/>
<path d="M111.376 111.876H107.912V115.34H111.376V111.876Z" fill="black"/>
<path d="M125.233 111.876H121.769V115.34H125.233V111.876Z" fill="black"/>
<path d="M128.698 111.876H125.233V115.34H128.698V111.876Z" fill="black"/>
<path d="M139.091 111.876H135.627V115.34H139.091V111.876Z" fill="black"/>
<path d="M14.3735 115.34H10.9091V118.805H14.3735V115.34Z" fill="black"/>
<path d="M17.8379 115.34H14.3735V118.805H17.8379V115.34Z" fill="black"/>
<path d="M21.3022 115.34H17.8379V118.805H21.3022V115.34Z" fill="black"/>
<path d="M24.7666 115.34H21.3022V118.805H24.7666V115.34Z" fill="black"/>
<path d="M28.231 115.34H24.7666V118.805H28.231V115.34Z" fill="black"/>
<path d="M31.6954 115.34H28.231V118.805H31.6954V115.34Z" fill="black"/>
<path d="M35.1597 115.34H31.6954V118.805H35.1597V115.34Z" fill="black"/>
<path d="M42.0885 115.34H38.6241V118.805H42.0885V115.34Z" fill="black"/>
<path d="M52.4816 115.34H49.0172V118.805H52.4816L52.4816 115.34Z" fill="black"/>
<path d="M55.946 115.34H52.4816L52.4816 118.805H55.946V115.34Z" fill="black"/>
<path d="M66.3391 115.34H62.8747L62.8747 118.805H66.3391V115.34Z" fill="black"/>
<path d="M69.8035 115.34H66.3391V118.805H69.8035L69.8035 115.34Z" fill="black"/>
<path d="M83.661 115.34H80.1966V118.805H83.661V115.34Z" fill="black"/>
<path d="M90.5897 115.34H87.1253V118.805H90.5897V115.34Z" fill="black"/>
<path d="M94.0541 115.34H90.5897V118.805H94.0541V115.34Z" fill="black"/>
<path d="M97.5185 115.34H94.0541V118.805H97.5185V115.34Z" fill="black"/>
<path d="M104.447 115.34H100.983V118.805H104.447V115.34Z" fill="black"/>
<path d="M111.376 115.34H107.912V118.805H111.376V115.34Z" fill="black"/>
<path d="M118.305 115.34H114.84V118.805H118.305V115.34Z" fill="black"/>
<path d="M125.233 115.34H121.769V118.805H125.233V115.34Z" fill="black"/>
<path d="M128.698 115.34H125.233V118.805H128.698V115.34Z" fill="black"/>
<path d="M135.627 115.34H132.162V118.805H135.627V115.34Z" fill="black"/>
<path d="M139.091 115.34H135.627V118.805H139.091V115.34Z" fill="black"/>
<path d="M14.3735 118.805H10.9091V122.269H14.3735V118.805Z" fill="black"/>
<path d="M35.1597 118.805H31.6954V122.269H35.1597V118.805Z" fill="black"/>
<path d="M42.0885 118.805H38.6241V122.269H42.0885V118.805Z" fill="black"/>
<path d="M45.5529 118.805H42.0885V122.269H45.5529V118.805Z" fill="black"/>
<path d="M59.4103 118.805H55.946L55.946 122.269H59.4103V118.805Z" fill="black"/>
<path d="M62.8747 118.805H59.4103V122.269H62.8747L62.8747 118.805Z" fill="black"/>
<path d="M66.3391 118.805H62.8747L62.8747 122.269H66.3391V118.805Z" fill="black"/>
<path d="M69.8035 118.805H66.3391V122.269H69.8035V118.805Z" fill="black"/>
<path d="M76.7322 118.805H73.2678V122.269H76.7322V118.805Z" fill="black"/>
<path d="M90.5897 118.805H87.1253V122.269H90.5897V118.805Z" fill="black"/>
<path d="M94.0541 118.805H90.5897V122.269H94.0541V118.805Z" fill="black"/>
<path d="M97.5185 118.805H94.0541V122.269H97.5185V118.805Z" fill="black"/>
<path d="M104.447 118.805H100.983V122.269H104.447V118.805Z" fill="black"/>
<path d="M107.912 118.805H104.447V122.269H107.912V118.805Z" fill="black"/>
<path d="M111.376 118.805H107.912V122.269H111.376V118.805Z" fill="black"/>
<path d="M125.233 118.805H121.769V122.269H125.233V118.805Z" fill="black"/>
<path d="M14.3735 122.269H10.9091V125.733H14.3735V122.269Z" fill="black"/>
<path d="M21.3022 122.269H17.8379V125.733H21.3022V122.269Z" fill="black"/>
<path d="M24.7666 122.269H21.3022V125.733H24.7666V122.269Z" fill="black"/>
<path d="M28.231 122.269H24.7666V125.733H28.231V122.269Z" fill="black"/>
<path d="M35.1597 122.269H31.6954V125.733H35.1597V122.269Z" fill="black"/>
<path d="M42.0885 122.269H38.6241V125.733H42.0885V122.269Z" fill="black"/>
<path d="M49.0172 122.269H45.5529V125.733H49.0172V122.269Z" fill="black"/>
<path d="M55.946 122.269H52.4816V125.733H55.946L55.946 122.269Z" fill="black"/>
<path d="M62.8747 122.269H59.4103V125.733H62.8747V122.269Z" fill="black"/>
<path d="M66.3391 122.269H62.8747V125.733H66.3391V122.269Z" fill="black"/>
<path d="M69.8035 122.269H66.3391V125.733H69.8035V122.269Z" fill="black"/>
<path d="M83.661 122.269H80.1966V125.733H83.661V122.269Z" fill="black"/>
<path d="M90.5897 122.269H87.1253V125.733H90.5897V122.269Z" fill="black"/>
<path d="M94.0541 122.269H90.5897V125.733H94.0541V122.269Z" fill="black"/>
<path d="M97.5185 122.269H94.0541V125.733H97.5185V122.269Z" fill="black"/>
<path d="M104.447 122.269H100.983V125.733H104.447V122.269Z" fill="black"/>
<path d="M111.376 122.269H107.912V125.733H111.376V122.269Z" fill="black"/>
<path d="M114.84 122.269H111.376V125.733H114.84V122.269Z" fill="black"/>
<path d="M118.305 122.269H114.84V125.733H118.305V122.269Z" fill="black"/>
<path d="M121.769 122.269H118.305V125.733H121.769V122.269Z" fill="black"/>
<path d="M125.233 122.269H121.769V125.733H125.233V122.269Z" fill="black"/>
<path d="M128.698 122.269H125.233V125.733H128.698V122.269Z" fill="black"/>
<path d="M135.627 122.269H132.162V125.733H135.627V122.269Z" fill="black"/>
<path d="M139.091 122.269H135.627V125.733H139.091V122.269Z" fill="black"/>
<path d="M14.3735 125.733H10.9091V129.198H14.3735V125.733Z" fill="black"/>
<path d="M21.3022 125.733H17.8379V129.198H21.3022V125.733Z" fill="black"/>
<path d="M24.7666 125.733H21.3022V129.198H24.7666V125.733Z" fill="black"/>
<path d="M28.231 125.733H24.7666V129.198H28.231V125.733Z" fill="black"/>
<path d="M35.1597 125.733H31.6954V129.198H35.1597V125.733Z" fill="black"/>
<path d="M42.0885 125.733H38.6241V129.198H42.0885V125.733Z" fill="black"/>
<path d="M45.5529 125.733H42.0885V129.198H45.5529V125.733Z" fill="black"/>
<path d="M55.946 125.733H52.4816V129.198H55.946V125.733Z" fill="black"/>
<path d="M62.8747 125.733H59.4103V129.198H62.8747V125.733Z" fill="black"/>
<path d="M69.8035 125.733H66.3391L66.3391 129.198H69.8035V125.733Z" fill="black"/>
<path d="M73.2678 125.733H69.8035V129.198H73.2678V125.733Z" fill="black"/>
<path d="M76.7322 125.733H73.2678V129.198H76.7322V125.733Z" fill="black"/>
<path d="M97.5185 125.733H94.0541V129.198H97.5185V125.733Z" fill="black"/>
<path d="M100.983 125.733H97.5185V129.198H100.983V125.733Z" fill="black"/>
<path d="M104.447 125.733H100.983V129.198H104.447V125.733Z" fill="black"/>
<path d="M111.376 125.733H107.912V129.198H111.376V125.733Z" fill="black"/>
<path d="M118.305 125.733H114.84V129.198H118.305V125.733Z" fill="black"/>
<path d="M121.769 125.733H118.305V129.198H121.769V125.733Z" fill="black"/>
<path d="M128.698 125.733H125.233V129.198H128.698V125.733Z" fill="black"/>
<path d="M132.162 125.733H128.698V129.198H132.162V125.733Z" fill="black"/>
<path d="M14.3735 129.198H10.9091V132.662H14.3735V129.198Z" fill="black"/>
<path d="M21.3022 129.198H17.8379V132.662H21.3022V129.198Z" fill="black"/>
<path d="M24.7666 129.198H21.3022V132.662H24.7666V129.198Z" fill="black"/>
<path d="M28.231 129.198H24.7666V132.662H28.231V129.198Z" fill="black"/>
<path d="M35.1597 129.198H31.6954V132.662H35.1597V129.198Z" fill="black"/>
<path d="M42.0885 129.198H38.6241V132.662H42.0885V129.198Z" fill="black"/>
<path d="M55.946 129.198H52.4816V132.662H55.946V129.198Z" fill="black"/>
<path d="M62.8747 129.198H59.4103V132.662H62.8747V129.198Z" fill="black"/>
<path d="M69.8035 129.198H66.3391V132.662H69.8035V129.198Z" fill="black"/>
<path d="M73.2678 129.198H69.8035V132.662H73.2678V129.198Z" fill="black"/>
<path d="M76.7322 129.198H73.2678V132.662H76.7322V129.198Z" fill="black"/>
<path d="M83.661 129.198H80.1966V132.662H83.661V129.198Z" fill="black"/>
<path d="M97.5185 129.198H94.0541V132.662H97.5185V129.198Z" fill="black"/>
<path d="M100.983 129.198H97.5185V132.662H100.983V129.198Z" fill="black"/>
<path d="M104.447 129.198H100.983V132.662H104.447V129.198Z" fill="black"/>
<path d="M111.376 129.198H107.912V132.662H111.376V129.198Z" fill="black"/>
<path d="M114.84 129.198H111.376V132.662H114.84V129.198Z" fill="black"/>
<path d="M118.305 129.198H114.84V132.662H118.305V129.198Z" fill="black"/>
<path d="M125.233 129.198H121.769V132.662H125.233V129.198Z" fill="black"/>
<path d="M128.698 129.198H125.233V132.662H128.698V129.198Z" fill="black"/>
<path d="M132.162 129.198H128.698V132.662H132.162V129.198Z" fill="black"/>
<path d="M139.091 129.198H135.627V132.662H139.091V129.198Z" fill="black"/>
<path d="M14.3735 132.662H10.9091V136.127H14.3735V132.662Z" fill="black"/>
<path d="M35.1597 132.662H31.6954V136.127H35.1597V132.662Z" fill="black"/>
<path d="M45.5529 132.662H42.0885V136.127H45.5529V132.662Z" fill="black"/>
<path d="M49.0172 132.662H45.5529V136.127H49.0172V132.662Z" fill="black"/>
<path d="M52.4816 132.662H49.0172V136.127H52.4816L52.4816 132.662Z" fill="black"/>
<path d="M62.8747 132.662H59.4103V136.127H62.8747V132.662Z" fill="black"/>
<path d="M66.3391 132.662H62.8747V136.127H66.3391L66.3391 132.662Z" fill="black"/>
<path d="M76.7322 132.662H73.2678L73.2678 136.127H76.7322V132.662Z" fill="black"/>
<path d="M87.1253 132.662H83.661V136.127H87.1253V132.662Z" fill="black"/>
<path d="M94.0541 132.662H90.5897V136.127H94.0541V132.662Z" fill="black"/>
<path d="M97.5185 132.662H94.0541V136.127H97.5185V132.662Z" fill="black"/>
<path d="M100.983 132.662H97.5185V136.127H100.983V132.662Z" fill="black"/>
<path d="M104.447 132.662H100.983V136.127H104.447V132.662Z" fill="black"/>
<path d="M114.84 132.662H111.376V136.127H114.84V132.662Z" fill="black"/>
<path d="M121.769 132.662H118.305V136.127H121.769V132.662Z" fill="black"/>
<path d="M132.162 132.662H128.698V136.127H132.162V132.662Z" fill="black"/>
<path d="M139.091 132.662H135.627V136.127H139.091V132.662Z" fill="black"/>
<path d="M14.3735 136.127H10.9091V139.591H14.3735V136.127Z" fill="black"/>
<path d="M17.8379 136.127H14.3735V139.591H17.8379V136.127Z" fill="black"/>
<path d="M21.3022 136.127H17.8379V139.591H21.3022V136.127Z" fill="black"/>
<path d="M24.7666 136.127H21.3022V139.591H24.7666V136.127Z" fill="black"/>
<path d="M28.231 136.127H24.7666V139.591H28.231V136.127Z" fill="black"/>
<path d="M31.6954 136.127H28.231V139.591H31.6954V136.127Z" fill="black"/>
<path d="M35.1597 136.127H31.6954V139.591H35.1597V136.127Z" fill="black"/>
<path d="M49.0172 136.127H45.5529V139.591H49.0172V136.127Z" fill="black"/>
<path d="M52.4816 136.127H49.0172V139.591H52.4816V136.127Z" fill="black"/>
<path d="M55.946 136.127H52.4816V139.591H55.946V136.127Z" fill="black"/>
<path d="M62.8747 136.127H59.4103V139.591H62.8747V136.127Z" fill="black"/>
<path d="M66.3391 136.127H62.8747V139.591H66.3391V136.127Z" fill="black"/>
<path d="M76.7322 136.127H73.2678V139.591H76.7322V136.127Z" fill="black"/>
<path d="M83.661 136.127H80.1966V139.591H83.661V136.127Z" fill="black"/>
<path d="M90.5897 136.127H87.1253V139.591H90.5897V136.127Z" fill="black"/>
<path d="M94.0541 136.127H90.5897V139.591H94.0541V136.127Z" fill="black"/>
<path d="M104.447 136.127H100.983V139.591H104.447V136.127Z" fill="black"/>
<path d="M111.376 136.127H107.912V139.591H111.376V136.127Z" fill="black"/>
<path d="M118.305 136.127H114.84V139.591H118.305V136.127Z" fill="black"/>
<path d="M121.769 136.127H118.305V139.591H121.769V136.127Z" fill="black"/>
<path d="M128.698 136.127H125.233V139.591H128.698V136.127Z" fill="black"/>
<path d="M132.162 136.127H128.698V139.591H132.162V136.127Z" fill="black"/>
<path d="M135.627 136.127H132.162V139.591H135.627V136.127Z" fill="black"/>
<path d="M139.091 136.127H135.627V139.591H139.091V136.127Z" fill="black"/>
</g>
<defs>
<clipPath id="clip0_3417_2051">
<rect y="0.5" width="150" height="150" rx="18" fill="white"/>
</clipPath>
</defs>
</svg>
