<svg width="75" height="75" viewBox="0 0 75 75" fill="none" xmlns="http://www.w3.org/2000/svg">
<path d="M18.75 56.25H25M37.5 56.25H56.25M21.875 6.25H53.125C56.5768 6.25 59.375 9.04822 59.375 12.5V25C59.375 28.4518 56.5768 31.25 53.125 31.25H21.875C18.4232 31.25 15.625 28.4518 15.625 25V12.5C15.625 9.04822 18.4232 6.25 21.875 6.25ZM12.5 43.75H62.5C65.9518 43.75 68.75 46.5482 68.75 50V62.5C68.75 65.9518 65.9518 68.75 62.5 68.75H12.5C9.04822 68.75 6.25 65.9518 6.25 62.5V50C6.25 46.5482 9.04822 43.75 12.5 43.75Z" stroke="white" stroke-opacity="0.8" stroke-width="8" stroke-linecap="round" stroke-linejoin="round"/>
</svg>
