<svg width="75" height="75" viewBox="0 0 75 75" fill="none" xmlns="http://www.w3.org/2000/svg">
<path d="M62.6688 49.9594H12.3313M56.25 15.625C57.9076 15.625 59.4973 16.2835 60.6694 17.4556C61.8415 18.6277 62.5 20.2174 62.5 21.875V48.5188C62.4996 49.492 62.7264 50.4518 63.1625 51.3219L66.5 57.9687C66.7409 58.4468 66.855 58.9788 66.8313 59.5136C66.8075 60.0485 66.6468 60.5682 66.3645 61.0231C66.0821 61.4779 65.6877 61.8526 65.2189 62.1113C64.7502 62.3699 64.2228 62.5037 63.6875 62.5H11.3125C10.7772 62.5037 10.2498 62.3699 9.78108 62.1113C9.31233 61.8526 8.91788 61.4779 8.63555 61.0231C8.35323 60.5682 8.19249 60.0485 8.16875 59.5136C8.14502 58.9788 8.25908 58.4468 8.5 57.9687L11.8375 51.3219C12.2736 50.4518 12.5004 49.492 12.5 48.5188V21.875C12.5 20.2174 13.1585 18.6277 14.3306 17.4556C15.5027 16.2835 17.0924 15.625 18.75 15.625H56.25Z" stroke="white" stroke-opacity="0.8" stroke-width="8" stroke-linecap="round" stroke-linejoin="round"/>
</svg>
