<svg width="38" height="37" viewBox="0 0 38 37" fill="none" xmlns="http://www.w3.org/2000/svg">
<path d="M26.9167 32.375V21.5833C26.9167 21.1745 26.7499 20.7823 26.4529 20.4932C26.156 20.2041 25.7533 20.0417 25.3333 20.0417H12.6667C12.2467 20.0417 11.844 20.2041 11.5471 20.4932C11.2501 20.7823 11.0833 21.1745 11.0833 21.5833V32.375M11.0833 4.625V10.7917C11.0833 11.2005 11.2501 11.5927 11.5471 11.8818C11.844 12.1709 12.2467 12.3333 12.6667 12.3333H23.75M24.0667 4.625C24.9019 4.63658 25.6987 4.96906 26.2833 5.55L32.3 11.4083C32.8966 11.9776 33.2381 12.7534 33.25 13.5667V29.2917C33.25 30.1094 32.9164 30.8937 32.3225 31.4719C31.7286 32.0501 30.9232 32.375 30.0833 32.375H7.91667C7.07681 32.375 6.27136 32.0501 5.6775 31.4719C5.08363 30.8937 4.75 30.1094 4.75 29.2917V7.70833C4.75 6.89058 5.08363 6.10632 5.6775 5.52809C6.27136 4.94985 7.07681 4.625 7.91667 4.625H24.0667Z" stroke="#090909" stroke-width="4" stroke-linecap="round" stroke-linejoin="round"/>
</svg>
