<svg width="150" height="149" viewBox="0 0 150 149" fill="none" xmlns="http://www.w3.org/2000/svg">
<path d="M0.0750275 0.532471H150.15V149.062H0.0750275V0.532471Z" fill="#D9D9D9"/>
<path d="M95.3055 58.6816V90.3184H54.6945V58.6816H95.3055ZM57.966 86.8883H91.8408V62.1124H57.966V86.8883Z" fill="#777777"/>
<path d="M90.0855 84.2629L83.0736 76.9642L80.4459 78.0909L72.1569 69.3494L68.8926 73.2156L67.4214 72.3348L59.4519 84.2629H90.0855Z" fill="#777777"/>
<path d="M81.9843 71.4187C80.2927 71.4187 78.9213 70.0608 78.9213 68.3858C78.9213 66.7107 80.2927 65.3528 81.9843 65.3528C83.676 65.3528 85.0473 66.7107 85.0473 68.3858C85.0473 70.0608 83.676 71.4187 81.9843 71.4187Z" fill="#777777"/>
</svg>
