<svg width="32" height="26" viewBox="0 0 32 26" fill="none" xmlns="http://www.w3.org/2000/svg">
<path d="M11.4882 0C13.2293 0 14.899 0.674415 16.1301 1.87488C17.3613 3.07535 18.0529 4.70353 18.0529 6.40124C18.0529 8.09896 17.3613 9.72714 16.1301 10.9276C14.899 12.1281 13.2293 12.8025 11.4882 12.8025C9.74714 12.8025 8.07739 12.1281 6.84627 10.9276C5.61515 9.72714 4.92352 8.09896 4.92352 6.40124C4.92352 4.70353 5.61515 3.07535 6.84627 1.87488C8.07739 0.674415 9.74714 0 11.4882 0ZM9.14441 15.203H13.832C14.4372 15.203 15.0321 15.263 15.6014 15.368C15.4937 16.2932 15.9809 17.1483 16.7194 17.6084C15.8681 18.1385 15.3501 19.1887 15.6937 20.2739C15.8989 20.9191 16.1758 21.5492 16.5348 22.1543C16.8938 22.7594 17.3144 23.3095 17.7862 23.8046C18.5914 24.6498 19.8172 24.7248 20.7198 24.2397V24.2847C20.7198 24.7448 20.8583 25.2099 21.125 25.6H1.52321C0.682112 25.605 0 24.9398 0 24.1197C0 19.1937 4.09267 15.203 9.14441 15.203ZM22.361 10.9121C22.361 10.5621 22.5918 10.247 22.9405 10.172C23.479 10.052 24.0432 9.98694 24.6176 9.98694C25.192 9.98694 25.7562 10.052 26.2947 10.172C26.6434 10.247 26.8742 10.5621 26.8742 10.9121V11.7973C26.8742 12.1874 27.1204 12.5374 27.4691 12.7325C27.8179 12.9275 28.2436 12.9575 28.5872 12.7625L29.2949 12.3674C29.6078 12.1924 29.9976 12.2324 30.2437 12.4874C30.6335 12.8925 30.9771 13.3476 31.2746 13.8477C31.5721 14.3478 31.8028 14.8679 31.967 15.398C32.0747 15.7331 31.9105 16.0831 31.5977 16.2582L30.8592 16.6732C30.5258 16.8583 30.3463 17.2183 30.3463 17.5934C30.3463 17.9685 30.5258 18.3286 30.8592 18.5136L31.5977 18.9287C31.9105 19.1037 32.0695 19.4538 31.967 19.7888C31.7977 20.3189 31.5669 20.8391 31.2746 21.3391C30.9823 21.8392 30.6335 22.2943 30.2437 22.6994C29.9976 22.9545 29.6027 22.9945 29.2949 22.8194L28.5872 22.4244C28.2436 22.2293 27.8127 22.2593 27.4691 22.4544C27.1204 22.6494 26.8742 22.9995 26.8742 23.3895V24.2747C26.8742 24.6248 26.6434 24.9398 26.2947 25.0149C25.7562 25.1349 25.192 25.1999 24.6176 25.1999C24.0432 25.1999 23.479 25.1349 22.9405 25.0149C22.5918 24.9398 22.361 24.6248 22.361 24.2747V23.3945C22.361 22.9995 22.1097 22.6494 21.7609 22.4494C21.4122 22.2543 20.9814 22.2243 20.6326 22.4194L19.9402 22.8094C19.6274 22.9845 19.2376 22.9445 18.9914 22.6894C18.6017 22.2843 18.258 21.8292 17.9606 21.3291C17.6631 20.829 17.4323 20.3089 17.2682 19.7788C17.1605 19.4438 17.3246 19.0937 17.6375 18.9187L18.3555 18.5136C18.6889 18.3236 18.8735 17.9585 18.8735 17.5834C18.8735 17.2083 18.694 16.8433 18.3555 16.6532L17.6375 16.2482C17.3246 16.0731 17.1656 15.7231 17.2682 15.388C17.4375 14.8579 17.6631 14.3378 17.9606 13.8377C18.258 13.3376 18.6017 12.8825 18.9914 12.4774C19.2376 12.2224 19.6274 12.1824 19.9402 12.3574L20.6377 12.7475C20.9865 12.9425 21.4173 12.9125 21.7661 12.7175C22.1199 12.5224 22.3661 12.1674 22.3661 11.7723V10.9121H22.361ZM27.0845 17.5884C27.0997 17.2636 27.0472 16.9392 26.9302 16.6348C26.8132 16.3303 26.6341 16.0521 26.4038 15.8171C26.1735 15.582 25.8967 15.3949 25.5901 15.267C25.2835 15.1392 24.9536 15.0733 24.6202 15.0733C24.2867 15.0733 23.9568 15.1392 23.6502 15.267C23.3436 15.3949 23.0668 15.582 22.8365 15.8171C22.6062 16.0521 22.4271 16.3303 22.3101 16.6348C22.1931 16.9392 22.1406 17.2636 22.1558 17.5884C22.1406 17.9132 22.1931 18.2376 22.3101 18.5421C22.4271 18.8465 22.6062 19.1247 22.8365 19.3598C23.0668 19.5949 23.3436 19.782 23.6502 19.9098C23.9568 20.0376 24.2867 20.1035 24.6202 20.1035C24.9536 20.1035 25.2835 20.0376 25.5901 19.9098C25.8967 19.782 26.1735 19.5949 26.4038 19.3598C26.6341 19.1247 26.8132 18.8465 26.9302 18.5421C27.0472 18.2376 27.0997 17.9132 27.0845 17.5884Z" fill="#090909"/>
</svg>
