<svg width="56" height="56" viewBox="0 0 56 56" fill="none" xmlns="http://www.w3.org/2000/svg">
<path d="M35.0001 11.6667L44.3334 21M49.4061 15.8947C50.6397 14.6613 51.3329 12.9884 51.3331 11.244C51.3333 9.49955 50.6406 7.82648 49.4072 6.59283C48.1739 5.35917 46.501 4.66599 44.7565 4.66577C43.0121 4.66555 41.339 5.35832 40.1054 6.59166L8.96472 37.7393C8.42296 38.2795 8.02232 38.9446 7.79805 39.676L4.71572 49.8307C4.65541 50.0325 4.65086 50.2468 4.70254 50.451C4.75421 50.6552 4.8602 50.8415 5.00924 50.9903C5.15829 51.1391 5.34483 51.2448 5.54909 51.2962C5.75334 51.3475 5.96769 51.3426 6.16938 51.282L16.3264 48.202C17.0571 47.9797 17.7221 47.5815 18.2631 47.0423L49.4061 15.8947Z" stroke="white" stroke-opacity="0.8" stroke-width="6" stroke-linecap="round" stroke-linejoin="round"/>
</svg>
